<svg xmlns="http://www.w3.org/2000/svg" xmlns:xlink="http://www.w3.org/1999/xlink" viewBox="0 0 213.62 187.57"><defs><style>.cls-1{isolation:isolate;}.cls-2{fill:url(#linear-gradient);}.cls-3{fill:url(#linear-gradient-2);}.cls-4{fill:url(#linear-gradient-3);}.cls-5{fill:url(#linear-gradient-4);}.cls-6{mix-blend-mode:screen;fill:url(#linear-gradient-5);}</style><linearGradient id="linear-gradient" x1="-3072.71" y1="177.75" x2="-3074.52" y2="220.46" gradientTransform="matrix(-1, 0, 0, 1, -2968.67, -19.58)" gradientUnits="userSpaceOnUse"><stop offset="0" stop-color="#007b56"/><stop offset="1" stop-color="#00cfae"/></linearGradient><linearGradient id="linear-gradient-2" x1="-3094.69" y1="155.68" x2="-3090.4" y2="193.08" xlink:href="#linear-gradient"/><linearGradient id="linear-gradient-3" x1="-3069.57" y1="141.28" x2="-3069.57" y2="184.74" xlink:href="#linear-gradient"/><linearGradient id="linear-gradient-4" x1="-40.73" y1="207.09" x2="142.2" y2="25.11" gradientTransform="matrix(1, 0, 0, 1, 0, 0)" xlink:href="#linear-gradient"/><linearGradient id="linear-gradient-5" x1="44.17" y1="166.7" x2="165.64" y2="0.94" gradientUnits="userSpaceOnUse"><stop offset="0"/><stop offset="0.19" stop-color="#000302"/><stop offset="0.34" stop-color="#000d08"/><stop offset="0.48" stop-color="#001e13"/><stop offset="0.61" stop-color="#003622"/><stop offset="0.73" stop-color="#005536"/><stop offset="0.85" stop-color="#007b4e"/><stop offset="0.97" stop-color="#00a76a"/><stop offset="1" stop-color="#00b372"/></linearGradient></defs><g class="cls-1"><g id="Layer_1" data-name="Layer 1"><polygon class="cls-2" points="69.05 166.22 140.62 187.57 127.82 152.5 69.05 166.22"/><polygon class="cls-3" points="188.47 153.72 69.05 166.22 64.1 113.81 188.47 153.72"/><polygon class="cls-4" points="13.33 119.79 188.47 153.72 178.93 107.53 13.33 119.79"/><polygon class="cls-5" points="213.62 119.79 195.19 0 0 0.84 13.33 119.79 213.62 119.79"/><path class="cls-6" d="M207.34,139.38h7.25L196.16,19.58,1,20.42,6.32,68.19C87.93,24.92,180.8,56,207.34,139.38Z" transform="translate(-0.97 -19.58)"/></g></g></svg>